<svg id="Layer_1" data-name="Layer 1" xmlns="http://www.w3.org/2000/svg" viewBox="0 0 259 57"><defs><style>.cls-1{fill:#ddd;}.cls-2,.cls-3{fill:none;stroke:#ddd;stroke-miterlimit:10;stroke-width:4px;}.cls-3{stroke-linecap:round;}</style></defs><path class="cls-1" d="M85.31,30.59V42H80.67V31.18c0-3.53-1.75-5.24-4.73-5.24-3.31,0-5.54,2-5.54,6V42H65.76V14.37H70.4v10A8.89,8.89,0,0,1,77,21.88C81.78,21.88,85.31,24.6,85.31,30.59Z"/><path class="cls-1" d="M106,30.33V42h-4.38V39.55c-1.12,1.71-3.28,2.67-6.25,2.67-4.54,0-7.4-2.49-7.4-5.95,0-3.3,2.23-5.91,8.25-5.91h5.14v-.3c0-2.71-1.64-4.31-4.95-4.31a9.85,9.85,0,0,0-6,2l-1.83-3.38A14,14,0,0,1,97,21.88C102.69,21.88,106,24.6,106,30.33Zm-4.64,5.42v-2.3h-4.8c-3.16,0-4,1.19-4,2.64,0,1.67,1.42,2.75,3.8,2.75A5.06,5.06,0,0,0,101.35,35.75Z"/><path class="cls-1" d="M110.09,14.37h4.65V42h-4.65Z"/><path class="cls-1" d="M117.34,32c0-5.95,4.46-10.16,10.56-10.16S138.5,26.09,138.5,32s-4.43,10.18-10.6,10.18S117.34,38,117.34,32Zm16.47,0c0-3.8-2.52-6.21-5.91-6.21S122,28.24,122,32s2.52,6.21,5.87,6.21S133.81,35.83,133.81,32Z"/><path class="cls-1" d="M160.81,22.11V39c0,7.22-3.75,10.49-10.71,10.49-3.72,0-7.4-1-9.66-2.83l2.08-3.49a12,12,0,0,0,7.32,2.38c4.39,0,6.33-2,6.33-6v-1a8.73,8.73,0,0,1-6.66,2.64c-5.69,0-10-3.87-10-9.63s4.35-9.56,10-9.56a8.61,8.61,0,0,1,6.88,2.87V22.11Zm-4.57,9.33c0-3.35-2.53-5.61-6-5.61s-6.07,2.26-6.07,5.61,2.53,5.69,6.07,5.69S156.24,34.82,156.24,31.44Z"/><path class="cls-1" d="M176.55,21.88v4.43a5.49,5.49,0,0,0-1.08-.11c-3.53,0-5.77,2.08-5.77,6.13V42h-4.64V22.11h4.42V25C170.82,22.93,173.24,21.88,176.55,21.88Z"/><path class="cls-1" d="M195.14,30.33V42h-4.39V39.55c-1.11,1.71-3.27,2.67-6.24,2.67-4.54,0-7.4-2.49-7.4-5.95,0-3.3,2.23-5.91,8.25-5.91h5.13v-.3c0-2.71-1.63-4.31-4.94-4.31a9.9,9.9,0,0,0-6,2l-1.82-3.38a13.94,13.94,0,0,1,8.4-2.46C191.83,21.88,195.14,24.6,195.14,30.33Zm-4.65,5.42v-2.3H185.7c-3.16,0-4,1.19-4,2.64,0,1.67,1.41,2.75,3.79,2.75A5.06,5.06,0,0,0,190.49,35.75Z"/><path class="cls-1" d="M204.37,21.07v1.19h5.46V26h-5.31V42h-4.65V26h-3.28V22.26h3.28V21c0-4.16,2.49-6.88,7.1-6.88a7.46,7.46,0,0,1,4.2,1.08l-1.3,3.5a4.54,4.54,0,0,0-2.57-.82C205.37,17.87,204.37,19,204.37,21.07Z"/><path class="cls-1" d="M212.24,16.05a2.82,2.82,0,0,1,3-2.79,2.77,2.77,0,0,1,3,2.67,2.85,2.85,0,0,1-3,2.9A2.82,2.82,0,0,1,212.24,16.05Zm.63,6.06h4.65V42h-4.65Z"/><path class="cls-1" d="M234.4,42l-5.09-6.88L224.17,42H219l7.74-10.07-7.4-9.78h5.17l4.87,6.5,4.87-6.5h5l-7.44,9.7L239.64,42Z"/><path class="cls-1" d="M39.85,11.66A16.36,16.36,0,1,1,23.5,28,16.37,16.37,0,0,1,39.85,11.66m0-5A21.36,21.36,0,1,0,61.2,28,21.35,21.35,0,0,0,39.85,6.66Z"/><path class="cls-2" d="M29.74,25.78a2.54,2.54,0,0,1,2.54-2.54"/><path class="cls-2" d="M34.82,25.78a2.54,2.54,0,0,0-2.54-2.54"/><path class="cls-2" d="M39.9,25.78a2.54,2.54,0,0,1,2.54-2.54"/><path class="cls-2" d="M45,25.78a2.54,2.54,0,0,0-2.54-2.54"/><path class="cls-2" d="M39.9,30a2.54,2.54,0,0,1-2.54,2.54"/><path class="cls-2" d="M34.82,30a2.53,2.53,0,0,0,2.54,2.54"/><path class="cls-2" d="M50.05,30a2.53,2.53,0,0,1-2.54,2.54"/><path class="cls-2" d="M45,30a2.53,2.53,0,0,0,2.53,2.54"/><line class="cls-2" x1="34.82" y1="25.63" x2="34.82" y2="30.11"/><line class="cls-2" x1="39.9" y1="25.63" x2="39.9" y2="30.11"/><line class="cls-2" x1="44.98" y1="25.63" x2="44.98" y2="30.11"/><line class="cls-3" x1="29.74" y1="25.84" x2="29.74" y2="31.58"/><line class="cls-3" x1="50.05" y1="29.9" x2="50.05" y2="24.16"/></svg>